<svg width="20" height="20" viewBox="0 0 20 20" fill="none" xmlns="http://www.w3.org/2000/svg">
<mask id="mask0_2151_4705" style="mask-type:luminance" maskUnits="userSpaceOnUse" x="0" y="0" width="20" height="20">
<path d="M19.8519 0H0V20H19.8519V0Z" fill="white"/>
</mask>
<g mask="url(#mask0_2151_4705)">
<path d="M5.33153 1.1028C5.39191 0.54895 5.77867 0.28195 6.38588 0.244642C7.60485 0.169872 8.82471 0.098029 10.0457 0.0566441C10.9625 0.0258749 11.882 0.0554864 12.7997 0.0371786C13.5609 0.021794 14.1624 0.194714 14.3788 0.84702C15.0855 0.84702 15.756 0.839327 16.4261 0.848559C18.2963 0.874789 19.4644 1.7281 19.5982 3.29472C19.729 4.82434 19.7827 6.36179 19.7756 7.89551C19.7659 9.99444 19.6779 12.0934 19.6009 14.1917C19.5727 14.9583 19.4982 15.7244 19.4114 16.488C19.2393 17.9993 17.4935 19.8768 14.8619 19.8775C11.2072 19.8786 7.55264 19.9314 3.89751 19.9513C3.53015 19.9454 3.16454 19.9074 2.80658 19.8381C1.0348 19.532 0.0409238 18.5098 0.0410156 16.9854C0.0410156 15.27 0.0575505 13.5541 0.0691312 11.8385C0.0845712 9.5602 0.0627949 7.28102 0.14119 5.00419C0.167201 4.24903 0.390534 3.48532 0.635189 2.75164C1.00346 1.64779 1.73476 1.18787 3.13119 1.11003C3.84465 1.07003 4.56439 1.1028 5.33153 1.1028ZM5.4591 1.78873C4.50685 1.88103 3.64246 1.95149 2.78323 2.0531C2.36046 2.1031 2.01802 2.32549 1.92014 2.66895C1.67271 3.5368 1.29305 4.41687 1.30022 5.29017C1.33322 9.31044 1.47219 13.3298 1.23397 17.3493C1.18801 18.1241 1.73651 18.7503 2.64464 18.9376C3.25077 19.069 3.87322 19.1404 4.49922 19.1504C6.2278 19.158 7.95704 19.1235 9.68551 19.0871C11.5504 19.0479 13.4161 19.0087 15.2784 18.9224C15.7778 18.8993 16.36 18.8076 16.7396 18.5662C17.5886 18.0268 18.2599 17.3382 18.3327 16.3731C18.381 15.7353 18.4741 15.0989 18.4944 14.4607C18.5516 12.656 18.6028 10.8508 18.6163 9.04536C18.6299 7.22894 18.628 5.41149 18.5661 3.5961C18.5403 2.83941 18.2188 2.0961 17.2239 1.90164C16.4092 1.74264 15.5412 1.77579 14.668 1.72203C14.6809 1.88017 14.6853 1.95564 14.6934 2.0308C14.767 2.72073 14.5004 3.05941 13.7093 3.25787C13.4499 3.33529 13.1805 3.38651 12.9067 3.41049C10.8143 3.49626 8.72151 3.57819 6.62787 3.63595C6.06228 3.65134 5.74134 3.32479 5.67205 2.82294C5.6271 2.49725 5.54034 2.17541 5.45882 1.78873H5.4591ZM10.2861 0.749486C10.2842 0.729333 10.2822 0.709179 10.2802 0.689025C9.12406 0.766666 7.96784 0.844059 6.81159 0.921181C6.45528 0.944259 6.33864 1.0918 6.42017 1.38273C6.49975 1.62954 6.5495 1.88243 6.56868 2.13756C6.57907 2.44526 6.75387 2.5341 7.08593 2.53241C8.18689 2.52673 9.28883 2.55449 10.3886 2.5238C11.3334 2.49749 12.2751 2.40072 13.2193 2.3511C13.6095 2.33064 13.6697 2.16795 13.5948 1.89241C13.5257 1.6564 13.476 1.41671 13.446 1.17503C13.4132 0.857181 13.2374 0.736565 12.853 0.744256C11.9979 0.76141 11.1418 0.749486 10.2861 0.749486Z" fill="#A1A7AC"/>
</g>
</svg>
