<svg width="20" height="20" viewBox="0 0 20 20" fill="none" xmlns="http://www.w3.org/2000/svg">
<g clip-path="url(#clip0_2054_3263)">
<path d="M16.25 8.75H15V10H16.25C17.2875 10 18.125 10.8375 18.125 11.875V14.375H19.375V11.875C19.375 10.15 17.975 8.75 16.25 8.75Z" fill="#6A727A"/>
<path d="M15 2.5C16.0375 2.5 16.875 3.3375 16.875 4.375C16.875 5.4125 16.0375 6.25 15 6.25C13.9625 6.25 13.125 5.4125 13.125 4.375C13.125 3.3375 13.9625 2.5 15 2.5ZM15 1.25C13.275 1.25 11.875 2.65 11.875 4.375C11.875 6.1 13.275 7.5 15 7.5C16.725 7.5 18.125 6.1 18.125 4.375C18.125 2.65 16.725 1.25 15 1.25Z" fill="#6A727A"/>
<path d="M14.375 18.75H13.125V17.5C13.125 16.4625 12.2875 15.625 11.25 15.625H8.75C7.7125 15.625 6.875 16.4625 6.875 17.5V18.75H5.625V17.5C5.625 15.775 7.025 14.375 8.75 14.375H11.25C12.975 14.375 14.375 15.775 14.375 17.5V18.75Z" fill="#6A727A"/>
<path d="M10 8.125C11.0375 8.125 11.875 8.9625 11.875 10C11.875 11.0375 11.0375 11.875 10 11.875C8.9625 11.875 8.125 11.0375 8.125 10C8.125 8.9625 8.9625 8.125 10 8.125ZM10 6.875C8.275 6.875 6.875 8.275 6.875 10C6.875 11.725 8.275 13.125 10 13.125C11.725 13.125 13.125 11.725 13.125 10C13.125 8.275 11.725 6.875 10 6.875Z" fill="#6A727A"/>
<path d="M5 8.75H3.75C2.025 8.75 0.625 10.15 0.625 11.875V14.375H1.875V11.875C1.875 10.8375 2.7125 10 3.75 10H5V8.75Z" fill="#6A727A"/>
<path d="M5 2.5C6.0375 2.5 6.875 3.3375 6.875 4.375C6.875 5.4125 6.0375 6.25 5 6.25C3.9625 6.25 3.125 5.4125 3.125 4.375C3.125 3.3375 3.9625 2.5 5 2.5ZM5 1.25C3.275 1.25 1.875 2.65 1.875 4.375C1.875 6.1 3.275 7.5 5 7.5C6.725 7.5 8.125 6.1 8.125 4.375C8.125 2.65 6.725 1.25 5 1.25Z" fill="#6A727A"/>
</g>
<defs>
<clipPath id="clip0_2054_3263">
<rect width="20" height="20" fill="white"/>
</clipPath>
</defs>
</svg>
