<svg width="20" height="20" viewBox="0 0 20 20" fill="none" xmlns="http://www.w3.org/2000/svg">
<path d="M10 8.75C11.725 8.75 13.125 7.35 13.125 5.625C13.125 3.9 11.725 2.5 10 2.5C8.275 2.5 6.875 3.9 6.875 5.625C6.875 7.35 8.275 8.75 10 8.75ZM10 3.75C11.0375 3.75 11.875 4.5875 11.875 5.625C11.875 6.6625 11.0375 7.5 10 7.5C8.9625 7.5 8.125 6.6625 8.125 5.625C8.125 4.5875 8.9625 3.75 10 3.75Z" fill="#6A727A"/>
<path d="M12.1375 9.375H7.8625C5.5875 9.375 3.75 11.3375 3.75 13.7375V16.875C3.75 17.225 4.025 17.5 4.375 17.5H15.625C15.975 17.5 16.25 17.225 16.25 16.875V13.7375C16.25 11.3375 14.4125 9.375 12.1375 9.375ZM15 16.25H5V13.7375C5 12.025 6.2875 10.625 7.8625 10.625H12.15C13.725 10.625 15.0125 12.025 15.0125 13.7375V16.25H15Z" fill="#6A727A"/>
</svg>
