<svg width="16" height="16" viewBox="0 0 16 16" fill="none" xmlns="http://www.w3.org/2000/svg">
<path fill-rule="evenodd" clip-rule="evenodd" d="M9.1469 3.43094C8.95345 3.33681 8.53833 3.24349 8.00812 3.24995C7.44615 3.25767 6.89101 3.38209 6.44566 3.74915M9.1469 3.43094C9.64667 3.67581 10.375 4.15723 10.375 5.125C10.375 6.18926 9.75893 6.66692 8.69742 7.39689C8.16131 7.76555 7.75246 8.1125 7.48791 8.51986C7.2064 8.95333 7.125 9.39611 7.125 9.875V10.5H8.375V9.875C8.375 9.55264 8.4261 9.37026 8.53623 9.20068C8.66332 9.00499 8.90525 8.77101 9.4057 8.42686L9.42972 8.41034C10.4363 7.71824 11.625 6.90096 11.625 5.125C11.625 3.38063 10.2658 2.58705 9.69616 2.30808L9.69513 2.30758C9.26281 2.09682 8.6321 1.99219 7.99233 2.00005L7.99147 2.00006C7.27171 2.00988 6.3964 2.16987 5.6506 2.78459L5.65059 2.7846C5.08184 3.25342 4.75336 3.71845 4.57252 4.14475C4.39067 4.57344 4.375 4.92412 4.375 5.125V5.75H5.625V5.125C5.625 5.01338 5.63183 4.84843 5.72326 4.6329C5.8157 4.41499 6.01128 4.10721 6.44565 3.74916" fill="#464748"/>
<path d="M8.51562 11.5H6.98438C6.92397 11.5 6.875 11.549 6.875 11.6094V13.1406C6.875 13.201 6.92397 13.25 6.98438 13.25H8.51562C8.57603 13.25 8.625 13.201 8.625 13.1406V11.6094C8.625 11.549 8.57603 11.5 8.51562 11.5Z" fill="#464748"/>
</svg>
