<svg width="16" height="16" viewBox="0 0 16 16" fill="none" xmlns="http://www.w3.org/2000/svg">
<path d="M13.7537 12.6953L10.9326 9.87423C11.6118 8.97005 11.9785 7.86947 11.9772 6.73861C11.9772 3.85006 9.62717 1.5 6.73861 1.5C3.85006 1.5 1.5 3.85006 1.5 6.73861C1.5 9.62717 3.85006 11.9772 6.73861 11.9772C7.86947 11.9785 8.97005 11.6118 9.87423 10.9326L12.6953 13.7537C12.8381 13.8814 13.0244 13.9495 13.2158 13.9442C13.4073 13.9388 13.5895 13.8603 13.7249 13.7249C13.8603 13.5895 13.9388 13.4073 13.9442 13.2158C13.9495 13.0244 13.8814 12.8381 13.7537 12.6953ZM2.99675 6.73861C2.99675 5.99854 3.2162 5.27509 3.62736 4.65974C4.03853 4.0444 4.62293 3.56479 5.30666 3.28158C5.9904 2.99837 6.74276 2.92426 7.46862 3.06865C8.19447 3.21303 8.8612 3.5694 9.38451 4.09271C9.90782 4.61602 10.2642 5.28276 10.4086 6.00861C10.553 6.73446 10.4789 7.48683 10.1956 8.17056C9.91243 8.8543 9.43283 9.4387 8.81748 9.84986C8.20214 10.261 7.47868 10.4805 6.73861 10.4805C5.74657 10.4793 4.79551 10.0847 4.09403 9.3832C3.39255 8.68172 2.99794 7.73065 2.99675 6.73861Z" fill="#86929E"/>
</svg>
