<svg width="16" height="16" viewBox="0 0 16 16" fill="none" xmlns="http://www.w3.org/2000/svg">
<path d="M8.0126 13.688C6.45926 13.688 4.90593 13.4413 3.4326 12.948C2.8726 12.7547 2.44593 12.3613 2.25926 11.848C2.06593 11.3347 2.1326 10.768 2.43926 10.2613L3.20593 8.988C3.36593 8.72133 3.5126 8.188 3.5126 7.87467V5.948C3.5126 3.468 5.5326 1.448 8.0126 1.448C10.4926 1.448 12.5126 3.468 12.5126 5.948V7.87467C12.5126 8.18133 12.6593 8.72133 12.8193 8.99466L13.5793 10.2613C13.8659 10.7413 13.9193 11.3213 13.7259 11.848C13.6315 12.1057 13.4799 12.3385 13.2824 12.5291C13.0849 12.7196 12.8468 12.8629 12.5859 12.948C11.1193 13.4413 9.56593 13.688 8.0126 13.688ZM8.0126 2.448C6.08593 2.448 4.5126 4.01466 4.5126 5.948V7.87467C4.5126 8.36133 4.3126 9.08133 4.06593 9.50133L3.29926 10.7747C3.15259 11.0213 3.1126 11.2813 3.19926 11.5013C3.27926 11.728 3.47926 11.9013 3.7526 11.9947C6.5182 12.928 9.51366 12.928 12.2793 11.9947C12.5193 11.9147 12.7059 11.7347 12.7926 11.4947C12.8793 11.2547 12.8593 10.9947 12.7259 10.7747L11.9593 9.50133C11.7059 9.068 11.5126 8.35466 11.5126 7.868V5.948C11.5126 4.01466 9.94593 2.448 8.0126 2.448Z" fill="#464748"/>
<path d="M9.25367 2.62663C9.20701 2.62663 9.16034 2.61997 9.11367 2.60663C8.92034 2.5533 8.73367 2.5133 8.55367 2.48663C7.987 2.4133 7.44034 2.4533 6.92701 2.60663C6.74034 2.66663 6.54034 2.60663 6.41367 2.46663C6.35056 2.39764 6.30829 2.31217 6.29177 2.22014C6.27525 2.1281 6.28516 2.03327 6.32034 1.94663C6.45307 1.60399 6.68663 1.30968 6.99015 1.10257C7.29368 0.895455 7.65289 0.785294 8.02034 0.786633C8.78034 0.786633 9.44701 1.23997 9.72034 1.94663C9.787 2.12663 9.75367 2.32663 9.627 2.46663C9.527 2.5733 9.38701 2.62663 9.25367 2.62663ZM8.01367 15.206C7.35367 15.206 6.71367 14.9393 6.247 14.4726C5.78034 14.006 5.51367 13.366 5.51367 12.706H6.51367C6.51367 13.0993 6.67367 13.486 6.95367 13.766C7.23367 14.046 7.62034 14.206 8.01367 14.206C8.84034 14.206 9.51367 13.5326 9.51367 12.706H10.5137C10.5137 14.086 9.39367 15.206 8.01367 15.206Z" fill="#464748"/>
</svg>
