<svg width="33" height="33" viewBox="0 0 33 33" fill="none" xmlns="http://www.w3.org/2000/svg">
<path d="M8.19588 11.4112V10.0755C8.19588 5.64922 11.7995 2.06104 16.2449 2.06104C20.6902 2.06104 24.2939 5.64922 24.2939 10.0755V11.4112H26.9769C27.7178 11.4112 28.3184 12.0093 28.3184 12.747V28.7758C28.3184 29.5136 27.7178 30.1116 26.9769 30.1116H5.51289C4.772 30.1116 4.17139 29.5136 4.17139 28.7758V12.747C4.17139 12.0093 4.772 11.4112 5.51289 11.4112H8.19588ZM25.6354 14.0827H6.85438V27.4401H25.6354V14.0827ZM14.9034 21.7397C14.1014 21.2778 13.5619 20.4145 13.5619 19.4257C13.5619 17.9502 14.7631 16.7542 16.2449 16.7542C17.7267 16.7542 18.9279 17.9502 18.9279 19.4257C18.9279 20.4145 18.3883 21.2778 17.5864 21.7397V24.7686H14.9034V21.7397ZM10.8789 11.4112H21.6109V10.0755C21.6109 7.12464 19.2084 4.73252 16.2449 4.73252C13.2813 4.73252 10.8789 7.12464 10.8789 10.0755V11.4112Z" fill="#1C1C1C"/>
</svg>
