<svg width="33" height="33" viewBox="0 0 33 33" fill="none" xmlns="http://www.w3.org/2000/svg">
<path d="M26.9772 29.6104H24.2942V26.9389C24.2942 24.7257 22.4924 22.9317 20.2697 22.9317H12.2207C9.99801 22.9317 8.19618 24.7257 8.19618 26.9389V29.6104H5.51318V26.9389C5.51318 23.2504 8.51624 20.2602 12.2207 20.2602H20.2697C23.9741 20.2602 26.9772 23.2504 26.9772 26.9389V29.6104ZM16.2452 17.5887C11.7998 17.5887 8.19618 14.0005 8.19618 9.57425C8.19618 5.148 11.7998 1.55981 16.2452 1.55981C20.6905 1.55981 24.2942 5.148 24.2942 9.57425C24.2942 14.0005 20.6905 17.5887 16.2452 17.5887ZM16.2452 14.9172C19.2087 14.9172 21.6112 12.5251 21.6112 9.57425C21.6112 6.62342 19.2087 4.23129 16.2452 4.23129C13.2816 4.23129 10.8792 6.62342 10.8792 9.57425C10.8792 12.5251 13.2816 14.9172 16.2452 14.9172Z" fill="#1C1C1C"/>
</svg>
