<svg width="28" height="28" viewBox="0 0 28 28" fill="none" xmlns="http://www.w3.org/2000/svg">
<path d="M1.75 24.5C1.75 24.5 0 24.5 0 22.75C0 21 1.75 15.75 10.5 15.75C19.25 15.75 21 21 21 22.75C21 24.5 19.25 24.5 19.25 24.5H1.75ZM10.5 14C11.8924 14 13.2277 13.4469 14.2123 12.4623C15.1969 11.4777 15.75 10.1424 15.75 8.75C15.75 7.35761 15.1969 6.02226 14.2123 5.03769C13.2277 4.05312 11.8924 3.5 10.5 3.5C9.10761 3.5 7.77226 4.05312 6.78769 5.03769C5.80312 6.02226 5.25 7.35761 5.25 8.75C5.25 10.1424 5.80312 11.4777 6.78769 12.4623C7.77226 13.4469 9.10761 14 10.5 14Z" fill="#05685E"/>
<path fill-rule="evenodd" clip-rule="evenodd" d="M23.625 8.75C23.8571 8.75 24.0796 8.84219 24.2437 9.00628C24.4078 9.17038 24.5 9.39294 24.5 9.625V12.25H27.125C27.3571 12.25 27.5796 12.3422 27.7437 12.5063C27.9078 12.6704 28 12.8929 28 13.125C28 13.3571 27.9078 13.5796 27.7437 13.7437C27.5796 13.9078 27.3571 14 27.125 14H24.5V16.625C24.5 16.8571 24.4078 17.0796 24.2437 17.2437C24.0796 17.4078 23.8571 17.5 23.625 17.5C23.3929 17.5 23.1704 17.4078 23.0063 17.2437C22.8422 17.0796 22.75 16.8571 22.75 16.625V14H20.125C19.8929 14 19.6704 13.9078 19.5063 13.7437C19.3422 13.5796 19.25 13.3571 19.25 13.125C19.25 12.8929 19.3422 12.6704 19.5063 12.5063C19.6704 12.3422 19.8929 12.25 20.125 12.25H22.75V9.625C22.75 9.39294 22.8422 9.17038 23.0063 9.00628C23.1704 8.84219 23.3929 8.75 23.625 8.75Z" fill="#05685E"/>
</svg>
